<?xml version="1.0" encoding="UTF-8"?>
<svg width="32px" height="32px" viewBox="0 0 32 32" version="1.1" xmlns="http://www.w3.org/2000/svg" xmlns:xlink="http://www.w3.org/1999/xlink">
    <!-- Generator: Sketch 47.1 (45422) - http://www.bohemiancoding.com/sketch -->
    <title>icon/argDown</title>
    <desc>Created with Sketch.</desc>
    <defs></defs>
    <g id="NOW" stroke="none" stroke-width="1" fill="none" fill-rule="evenodd">
        <g id="icon/argDown" fill="#FFFF00">
            <g id="weights" transform="translate(5.000000, 17.000000)">
                <path d="M18,1.75 L4,1.75 L4,0.5 C4,0.223857625 3.77614237,-5.07265313e-17 3.5,0 L1.5,0 L1.5,0 C1.22385763,5.07265313e-17 1,0.223857625 1,0.5 L1,0.5 L1,1.75 C0.723857625,1.75 0.5,1.97385763 0.5,2.25 L0.5,2.75 C0.5,3.02614237 0.723857625,3.25 1,3.25 L1,4.5 C1,4.77614237 1.22385763,5 1.5,5 L3.5,5 C3.77614237,5 4,4.77614237 4,4.5 L4,3.25 L18,3.25 L18,4.5 C18,4.77614237 18.2238576,5 18.5,5 L20.5,5 C20.7761424,5 21,4.77614237 21,4.5 L21,3.25 C21.2761424,3.25 21.5,3.02614237 21.5,2.75 L21.5,2.25 C21.5,1.97385763 21.2761424,1.75 21,1.75 L21,0.5 C21,0.223857625 20.7761424,-5.07265313e-17 20.5,0 L18.5,0 C18.2238576,5.07265313e-17 18,0.223857625 18,0.5 L18,0.5 L18,1.75 Z" id="Combined-Shape"></path>
            </g>
            <g id="weightlifter" transform="translate(10.000000, 9.000000)">
                <circle id="Oval-19" cx="6" cy="2" r="2"></circle>
                <path d="M1.5,11 L4,11 L4,14 L4,14 C4,14.5522847 3.55228475,15 3,15 L2.5,15 L2.5,15 C1.94771525,15 1.5,14.5522847 1.5,14 L1.5,11 Z" id="Rectangle-6"></path>
                <path d="M8,11 L10.5,11 L10.5,14 L10.5,14 C10.5,14.5522847 10.0522847,15 9.5,15 L9,15 L9,15 C8.44771525,15 8,14.5522847 8,14 L8,11 Z" id="Rectangle-6-Copy"></path>
                <path d="M9,4 L9.26142535,4 L9.26142535,4 C9.7004302,4 10.0880992,4.28632253 10.2172044,4.70591415 L12,10.5 L10.5,10.5 L8.35897908,4.93334561 L8.35897908,4.93334561 C8.2228152,4.57931953 8.39942741,4.18194205 8.75345349,4.04577818 C8.83212996,4.015518 8.91570489,4 9,4 Z" id="Path-6"></path>
                <path d="M1,4 L1.26142535,4 L1.26142535,4 C1.7004302,4 2.08809924,4.28632253 2.21720435,4.70591415 L4,10.5 L2.5,10.5 L0.358979079,4.93334561 L0.358979079,4.93334561 C0.222815203,4.57931953 0.399427413,4.18194205 0.753453492,4.04577818 C0.832129963,4.015518 0.91570489,4 1,4 Z" id="Path-6-Copy" transform="translate(2.000000, 7.250000) scale(-1, 1) translate(-2.000000, -7.250000) "></path>
                <path d="M2,10 L4.7,6.4 L4.7,6.4 C4.88885438,6.14819416 5.1852427,6 5.5,6 L6.5,6 L6.5,6 C6.8147573,6 7.11114562,6.14819416 7.3,6.4 L10,10 L7.5,10 L6,8 L4.5,10 L2,10 Z" id="Path-9"></path>
            </g>
            <circle id="Oval-14" opacity="0.8" cx="16" cy="16" r="16"></circle>
        </g>
    </g>
</svg>