<?xml version="1.0" encoding="UTF-8"?>
<svg width="32px" height="32px" viewBox="0 0 32 32" version="1.1" xmlns="http://www.w3.org/2000/svg" xmlns:xlink="http://www.w3.org/1999/xlink">
    <!-- Generator: Sketch 47.1 (45422) - http://www.bohemiancoding.com/sketch -->
    <title>icon/winInCircle-Down</title>
    <desc>Created with Sketch.</desc>
    <defs></defs>
    <g id="NOW" stroke="none" stroke-width="1" fill="none" fill-rule="evenodd">
        <g id="icon/winInCircle-Down">
            <g id="icon/win">
                <g id="Group" transform="translate(7.000000, 7.000000)">
                    <path d="M5.84010194,17.3046094 C6.69981114,15.7948207 7.33232849,14.2687892 7.73765401,12.7265149 C5.75239153,10.6181881 3.24,6.49202823 3.24,2.86810371 C3.24,2.50788381 3.25190002,2.15167628 3.2751635,1.80025572 C3.09638558,1.7054773 3,1.60461465 3,1.5 C3,0.94771525 5.6862915,0.5 9,0.5 C12.3137085,0.5 15,0.94771525 15,1.5 C15,1.60461465 14.9036144,1.7054773 14.7248365,1.80025572 C14.7481,2.15167628 14.76,2.50788381 14.76,2.86810371 C14.76,6.54836183 12.1688915,10.746591 10.1701573,12.8233639 C10.5556753,14.4986343 11.1888135,15.9810583 12.0695719,17.2706356 C12.5570954,17.4477388 12.88,17.6613457 12.88,17.8913043 C12.88,18.50362 10.5905801,19 9,19 C7.40941992,19 5.12,18.50362 5.12,17.8913043 C5.12,17.6758633 5.40342063,17.4747747 5.84010194,17.3046094 Z" id="Combined-Shape" fill="#FFFF00"></path>
                    <path d="M15,4.06921938 C15,2.56921938 17.5,2.56921938 17.5,4.56921938 C17.5,6.56921938 13,7.63843876 13,8.56921938 C13,9.18973979 13.3333333,9.52307313 14,9.56921938" id="Path-5" stroke="#FFFF00" stroke-width="1.5" stroke-linecap="round"></path>
                    <path d="M2.5,4.06921938 C2.5,2.56921938 5,2.56921938 5,4.56921938 C5,6.56921938 0.5,7.63843876 0.5,8.56921938 C0.5,9.18973979 0.833333333,9.52307313 1.5,9.56921938" id="Path-5-Copy" stroke="#FFFF00" stroke-width="1.5" stroke-linecap="round" transform="translate(2.750000, 6.284610) scale(-1, 1) translate(-2.750000, -6.284610) "></path>
                </g>
            </g>
            <circle id="Oval-14" fill="#FFFF00" opacity="0.800000012" cx="16" cy="16" r="15"></circle>
        </g>
    </g>
</svg>